{
  "accessors": [
    {
      "bufferView": 2,
      "componentType": 5126,
      "count": 4355,
      "max": [
        0.1149120032787323,
        2.1749989986419678,
        0.34515899419784546
      ],
      "min": [
        -0.1149120032787323,
        -2.22890305519104,
        -0.5434889793395996
      ],
      "type": "VEC3"
    },
    {
      "bufferView": 2,
      "byteOffset": 52260,
      "componentType": 5126,
      "count": 4355,
      "max": [
        1.0,
        1.0,
        1.0
      ],
      "min": [
        -1.0,
        -1.0,
        -1.0
      ],
      "type": "VEC3"
    },
    {
      "bufferView": 3,
      "componentType": 5126,
      "count": 4355,
      "max": [
        1.0,
        1.0,
        1.0,
        1.0
      ],
      "min": [
        -1.0,
        -1.0,
        -1.0,
        -1.0
      ],
      "type": "VEC4"
    },
    {
      "bufferView": 1,
      "componentType": 5126,
      "count": 4355,
      "max": [
        0.9999319911003113,
        0.9961079955101013
      ],
      "min": [
        9.300000237999484e-05,
        0.019905999302864075
      ],
      "type": "VEC2"
    },
    {
      "bufferView": 0,
      "componentType": 5125,
      "count": 10794,
      "type": "SCALAR"
    },
    {
      "bufferView": 2,
      "byteOffset": 104520,
      "componentType": 5126,
      "count": 8913,
      "max": [
        0.11145099997520447,
        2.085120916366577,
        0.35058701038360596
      ],
      "min": [
        -0.11145099997520447,
        -2.22890305519104,
        -0.5519059896469116
      ],
      "type": "VEC3"
    },
    {
      "bufferView": 2,
      "byteOffset": 211476,
      "componentType": 5126,
      "count": 8913,
      "max": [
        1.0,
        1.0,
        1.0
      ],
      "min": [
        -1.0,
        -1.0,
        -1.0
      ],
      "type": "VEC3"
    },
    {
      "bufferView": 3,
      "byteOffset": 69680,
      "componentType": 5126,
      "count": 8913,
      "max": [
        1.0,
        1.0,
        1.0,
        1.0
      ],
      "min": [
        -1.0,
        -1.0,
        -1.0,
        1.0
      ],
      "type": "VEC4"
    },
    {
      "bufferView": 1,
      "byteOffset": 34840,
      "componentType": 5126,
      "count": 8913,
      "max": [
        0.9999510049819946,
        0.9998810291290283
      ],
      "min": [
        8.099999831756577e-05,
        0.00015500000154133886
      ],
      "type": "VEC2"
    },
    {
      "bufferView": 0,
      "byteOffset": 43176,
      "componentType": 5125,
      "count": 23922,
      "type": "SCALAR"
    }
  ],
  "asset": {
    "extras": {
      "author": "denlark (https://sketchfab.com/denlark)",
      "license": "CC-BY-4.0 (http://creativecommons.org/licenses/by/4.0/)",
      "source": "https://sketchfab.com/3d-models/bobs-sniper-rifle-b459c3df0c5d4f2ebbe9137e04d86e24",
      "title": "Bob's sniper-rifle"
    },
    "generator": "Sketchfab-12.65.0",
    "version": "2.0"
  },
  "bufferViews": [
    {
      "buffer": 0,
      "byteLength": 138864,
      "name": "floatBufferViews",
      "target": 34963
    },
    {
      "buffer": 0,
      "byteLength": 106144,
      "byteOffset": 138864,
      "byteStride": 8,
      "name": "floatBufferViews",
      "target": 34962
    },
    {
      "buffer": 0,
      "byteLength": 318432,
      "byteOffset": 245008,
      "byteStride": 12,
      "name": "floatBufferViews",
      "target": 34962
    },
    {
      "buffer": 0,
      "byteLength": 212288,
      "byteOffset": 563440,
      "byteStride": 16,
      "name": "floatBufferViews",
      "target": 34962
    }
  ],
  "buffers": [
    {
      "byteLength": 775728,
      "uri": "scene.bin"
    }
  ],
  "images": [
    {
      "uri": "textures/canon_metall_baseColor.png"
    },
    {
      "uri": "textures/canon_metall_metallicRoughness.png"
    },
    {
      "uri": "textures/canon_metall_emissive.png"
    },
    {
      "uri": "textures/canon_metall_normal.png"
    },
    {
      "uri": "textures/paint_baseColor.png"
    },
    {
      "uri": "textures/paint_metallicRoughness.png"
    },
    {
      "uri": "textures/paint_emissive.png"
    },
    {
      "uri": "textures/paint_normal.png"
    }
  ],
  "materials": [
    {
      "doubleSided": true,
      "emissiveFactor": [
        1.0,
        1.0,
        1.0
      ],
      "emissiveTexture": {
        "index": 2
      },
      "name": "canon_metall",
      "normalTexture": {
        "index": 3
      },
      "pbrMetallicRoughness": {
        "baseColorTexture": {
          "index": 0
        },
        "metallicRoughnessTexture": {
          "index": 1
        }
      }
    },
    {
      "doubleSided": true,
      "emissiveFactor": [
        1.0,
        1.0,
        1.0
      ],
      "emissiveTexture": {
        "index": 6
      },
      "name": "paint",
      "normalTexture": {
        "index": 7
      },
      "occlusionTexture": {
        "index": 5
      },
      "pbrMetallicRoughness": {
        "baseColorTexture": {
          "index": 4
        },
        "metallicRoughnessTexture": {
          "index": 5
        }
      }
    }
  ],
  "meshes": [
    {
      "name": "Object_0",
      "primitives": [
        {
          "attributes": {
            "NORMAL": 1,
            "POSITION": 0,
            "TANGENT": 2,
            "TEXCOORD_0": 3
          },
          "indices": 4,
          "material": 0,
          "mode": 4
        }
      ]
    },
    {
      "name": "Object_1",
      "primitives": [
        {
          "attributes": {
            "NORMAL": 6,
            "POSITION": 5,
            "TANGENT": 7,
            "TEXCOORD_0": 8
          },
          "indices": 9,
          "material": 1,
          "mode": 4
        }
      ]
    }
  ],
  "nodes": [
    {
      "children": [
        1
      ],
      "matrix": [
        1.0,
        0.0,
        0.0,
        0.0,
        0.0,
        2.220446049250313e-16,
        -1.0,
        0.0,
        0.0,
        1.0,
        2.220446049250313e-16,
        0.0,
        0.0,
        0.0,
        0.0,
        1.0
      ],
      "name": "Sketchfab_model"
    },
    {
      "children": [
        2,
        3
      ],
      "name": "rifle_lowpoly.obj.cleaner.materialmerger.gles"
    },
    {
      "mesh": 0,
      "name": "Object_2"
    },
    {
      "mesh": 1,
      "name": "Object_3"
    }
  ],
  "samplers": [
    {
      "magFilter": 9729,
      "minFilter": 9987,
      "wrapS": 10497,
      "wrapT": 10497
    }
  ],
  "scene": 0,
  "scenes": [
    {
      "name": "Sketchfab_Scene",
      "nodes": [
        0
      ]
    }
  ],
  "textures": [
    {
      "sampler": 0,
      "source": 0
    },
    {
      "sampler": 0,
      "source": 1
    },
    {
      "sampler": 0,
      "source": 2
    },
    {
      "sampler": 0,
      "source": 3
    },
    {
      "sampler": 0,
      "source": 4
    },
    {
      "sampler": 0,
      "source": 5
    },
    {
      "sampler": 0,
      "source": 6
    },
    {
      "sampler": 0,
      "source": 7
    }
  ]
}
